<?xml version="1.0" encoding="utf-8"?>
<!-- Generator: Adobe Illustrator 25.4.1, SVG Export Plug-In . SVG Version: 6.00 Build 0)  -->
<svg version="1.1" id="Layer_1" xmlns="http://www.w3.org/2000/svg" xmlns:xlink="http://www.w3.org/1999/xlink" x="0px" y="0px"
	 viewBox="0 0 612 792" style="enable-background:new 0 0 612 792;" xml:space="preserve">
<g>
	<path d="M266.4,243v2.7l-8.9,4.2l8.9,4.2v2.7l-11.8-5.7v-2.3L266.4,243z"/>
	<path d="M270.2,239l10.3,24l-2.2,1L268,240L270.2,239z"/>
	<path d="M298.9,243.5h-6.3v4.3h6.1v2.6h-6.1v8.6h-2.7v-18.1h9V243.5z"/>
	<path d="M311.8,254h-8.2c0.1,0.9,0.4,1.7,0.9,2.2c0.5,0.5,1.2,0.8,2.1,0.8c0.7,0,1.2-0.2,1.6-0.5c0.4-0.3,0.9-0.9,1.4-1.7l2.2,1.2
		c-0.3,0.6-0.7,1.1-1.1,1.5s-0.8,0.8-1.2,1s-0.9,0.5-1.4,0.6s-1.1,0.2-1.7,0.2c-1.7,0-3.1-0.5-4.1-1.6c-1-1.1-1.5-2.6-1.5-4.4
		c0-1.8,0.5-3.3,1.5-4.4c1-1.1,2.3-1.7,4-1.7c1.7,0,3,0.5,4,1.6c1,1.1,1.5,2.5,1.5,4.4L311.8,254z M309.1,251.8
		c-0.4-1.4-1.3-2.1-2.7-2.1c-0.3,0-0.6,0-0.9,0.1s-0.5,0.2-0.8,0.4s-0.4,0.4-0.6,0.7s-0.3,0.6-0.4,0.9H309.1z"/>
	<path d="M325.1,254h-8.2c0.1,0.9,0.4,1.7,0.9,2.2c0.5,0.5,1.2,0.8,2.1,0.8c0.7,0,1.2-0.2,1.6-0.5c0.4-0.3,0.9-0.9,1.4-1.7l2.2,1.2
		c-0.3,0.6-0.7,1.1-1.1,1.5s-0.8,0.8-1.2,1s-0.9,0.5-1.4,0.6s-1.1,0.2-1.7,0.2c-1.7,0-3.1-0.5-4.1-1.6c-1-1.1-1.5-2.6-1.5-4.4
		c0-1.8,0.5-3.3,1.5-4.4c1-1.1,2.3-1.7,4-1.7c1.7,0,3,0.5,4,1.6c1,1.1,1.5,2.5,1.5,4.4L325.1,254z M322.4,251.8
		c-0.4-1.4-1.3-2.1-2.7-2.1c-0.3,0-0.6,0-0.9,0.1s-0.5,0.2-0.8,0.4s-0.4,0.4-0.6,0.7s-0.3,0.6-0.4,0.9H322.4z"/>
	<path d="M336.4,239.2h2.6V259h-2.6v-1.2c-1,1-2.2,1.5-3.5,1.5c-1.6,0-2.9-0.6-3.9-1.7c-1-1.2-1.5-2.6-1.5-4.4
		c0-1.7,0.5-3.1,1.5-4.3c1-1.1,2.3-1.7,3.8-1.7c1.3,0,2.5,0.5,3.6,1.6V239.2z M330.2,253.3c0,1.1,0.3,2,0.9,2.7c0.6,0.7,1.4,1,2.3,1
		c1,0,1.8-0.3,2.4-1c0.6-0.7,0.9-1.6,0.9-2.6s-0.3-2-0.9-2.6c-0.6-0.7-1.4-1-2.3-1c-0.9,0-1.7,0.3-2.3,1
		C330.5,251.4,330.2,252.3,330.2,253.3z"/>
	<path d="M345,239.2v9.7c1.1-1.1,2.2-1.6,3.6-1.6c1.5,0,2.8,0.6,3.8,1.7c1,1.1,1.5,2.6,1.5,4.3c0,1.8-0.5,3.2-1.5,4.4
		c-1,1.1-2.3,1.7-3.9,1.7c-1.3,0-2.5-0.5-3.5-1.5v1.2h-2.6v-19.8H345z M351.3,253.4c0-1.1-0.3-2-0.9-2.7c-0.6-0.7-1.4-1.1-2.3-1.1
		c-1,0-1.8,0.3-2.4,1c-0.6,0.7-0.9,1.5-0.9,2.6c0,1.1,0.3,2,0.9,2.7c0.6,0.7,1.4,1,2.3,1c0.9,0,1.7-0.3,2.3-1
		C351,255.3,351.3,254.4,351.3,253.4z"/>
	<path d="M365.2,247.6h2.6V259h-2.6v-1.2c-1.1,1-2.3,1.5-3.5,1.5c-1.6,0-2.9-0.6-3.9-1.7c-1-1.2-1.5-2.6-1.5-4.4
		c0-1.7,0.5-3.1,1.5-4.3s2.3-1.7,3.8-1.7c1.3,0,2.5,0.5,3.6,1.6V247.6z M358.9,253.3c0,1.1,0.3,2,0.9,2.7c0.6,0.7,1.4,1,2.3,1
		c1,0,1.8-0.3,2.4-1c0.6-0.7,0.9-1.6,0.9-2.6s-0.3-2-0.9-2.6c-0.6-0.7-1.4-1-2.3-1c-0.9,0-1.7,0.3-2.3,1
		C359.2,251.4,358.9,252.3,358.9,253.3z"/>
	<path d="M380.1,248.1v3.5c-0.6-0.7-1.1-1.2-1.6-1.5c-0.5-0.3-1-0.4-1.7-0.4c-1,0-1.8,0.3-2.5,1s-1,1.6-1,2.6c0,1.1,0.3,1.9,0.9,2.6
		c0.6,0.7,1.5,1,2.4,1c0.6,0,1.2-0.1,1.7-0.4c0.5-0.3,1-0.8,1.7-1.5v3.5c-1.1,0.6-2.1,0.8-3.2,0.8c-1.8,0-3.2-0.6-4.4-1.7
		c-1.2-1.1-1.8-2.6-1.8-4.3s0.6-3.1,1.8-4.3s2.7-1.8,4.4-1.8C378,247.3,379.1,247.6,380.1,248.1z"/>
	<path d="M385.9,239.2v12.1l3.7-3.7h3.5l-5,4.8l5.3,6.6h-3.4l-3.8-4.8l-0.4,0.4v4.4h-2.6v-19.8H385.9z"/>
	<path d="M395,256.8v-2.7l8.9-4.2l-8.9-4.2V243l11.8,5.7v2.3L395,256.8z"/>
</g>
</svg>
