<?xml version="1.0" encoding="utf-8"?>
<!-- Generator: Adobe Illustrator 25.4.1, SVG Export Plug-In . SVG Version: 6.00 Build 0)  -->
<svg version="1.1" id="Layer_1" xmlns="http://www.w3.org/2000/svg" xmlns:xlink="http://www.w3.org/1999/xlink" x="0px" y="0px"
	 viewBox="0 0 612 792" style="enable-background:new 0 0 612 792;" xml:space="preserve">
<g>
	<path d="M277,186.9v3h-12.3c-0.8,0-1.5,0.7-1.5,1.5v1.6H274v3h-10.8v7.7h-3v-12.3c0-2.5,2-4.5,4.5-4.5H277z"/>
	<path d="M282.4,191.4v1.6h10.8v3h-10.8v3.2c0,0.8,0.7,1.5,1.5,1.5h12.3v3h-12.3c-2.5,0-4.5-2-4.5-4.5v-7.7c0-2.5,2-4.5,4.5-4.5
		h12.3v3h-12.3C283.1,189.9,282.4,190.6,282.4,191.4z"/>
	<path d="M301.6,191.4v1.6h10.8v3h-10.8v3.2c0,0.8,0.7,1.5,1.5,1.5h12.3v3h-12.3c-2.5,0-4.5-2-4.5-4.5v-7.7c0-2.5,2-4.5,4.5-4.5
		h12.3v3h-12.3C302.3,189.9,301.6,190.6,301.6,191.4z"/>
	<path d="M326.2,186.9c4.6,0,8.4,3.7,8.4,8.4c0,2.1-0.7,4-2,5.4c-0.1,0.2-0.3,0.3-0.5,0.5c-1.5,1.5-3.6,2.5-5.9,2.5h-8.4v-16.8
		L326.2,186.9L326.2,186.9z M331.6,195.3c0-3-2.4-5.4-5.4-5.4h-5.4v10.8h5.4C329.1,200.7,331.6,198.3,331.6,195.3z"/>
	<path d="M353.8,198.3c0,3-2.4,5.4-5.4,5.4H337v-16.8h10.6c2.5,0,4.5,2,4.5,4.5c0,0.9-0.3,1.8-0.7,2.4
		C352.8,194.8,353.8,196.4,353.8,198.3z M340,192.9h7.6c0.8,0,1.5-0.7,1.5-1.5c0-0.8-0.7-1.5-1.5-1.5H340V192.9z M348.4,200.6
		c1.3,0,2.4-1.1,2.4-2.4s-1.1-2.4-2.4-2.4H340v4.7L348.4,200.6L348.4,200.6z"/>
	<path d="M371.8,203.7h-3.4l-1.5-3l-3.7-7.2l-3.7,7.2l-1.5,3h-3.4l1.5-3l7-13.8l7,13.8L371.8,203.7z"/>
	<path d="M373.8,195.3c0,3,2.4,5.4,5.4,5.4h8.4v3h-8.4c-4.6,0-8.4-3.8-8.4-8.4s3.8-8.4,8.4-8.4h8.4v3h-8.4
		C376.3,189.9,373.8,192.3,373.8,195.3z"/>
	<path d="M399.5,193.6l7.3,10.1h-3.7l-5.8-8l-4.2,3.9v4.2h-3v-16.8h3v8.6l2.5-2.3l2.2-2l4.7-4.3h4.4L399.5,193.6z"/>
</g>
<g>
	<path d="M198.9,216.6c-1.7-4.3-3.5-8.9-5.3-13.6c6.9-4.7,12.8-10.3,17.2-17.4c0.7-1.1,0.7-2.5,1.5-3.5c0.8-1,1.9-1.9,3.1-2.3
		c0.5-0.2,1.9,1,2.2,1.8c4.6,11.6,9.1,23.2,13.6,34.9c0.3,0.8,0.1,2.4-0.4,2.8c-1,0.6-2.5,0.9-3.6,0.6c-4-1-7.9-2.8-12-3.2
		C209.9,216.2,204.6,216.6,198.9,216.6z"/>
	<path d="M190.6,221.7c-6.9,1.6-11.4-0.8-12.3-6.5c-0.6-3.9,1.5-7.7,5.2-9.2c0.7-0.3,1.3-0.5,2-0.8c5-2.2,5.9-2.1,7.4,2.7
		c2.7,8.6,7.5,16,11.9,23.7c1.8,3.1,1.6,3.6-1.6,4.8c-6.3,2.5-5.6,2.5-7.8-3.4c-1.4-3.7-2.9-7.3-4.3-11
		C191,222,190.9,221.9,190.6,221.7z"/>
	<path d="M244.4,207.5c-0.5-11.5-4.3-21.6-12.6-29.9c-0.4-0.4-1.1-0.8-1.2-1.3c-0.1-0.9-0.2-2,0.3-2.6c0.3-0.4,1.8-0.4,2.3,0
		c1.4,1,2.6,2.2,3.7,3.6c7.9,9.6,12,20.6,11.4,33.2c-0.1,1.5,0,3.5-2.2,3.1c-0.7-0.1-1.3-2.1-1.6-3.3
		C244.2,209.3,244.4,208.4,244.4,207.5z"/>
	<path d="M240.2,206.5c-0.1,1,0.1,1.8-0.2,2.4c-0.5,1-1.3,1.9-2,2.9c-0.7-1.1-1.7-2.1-1.9-3.2c-0.6-3.6-0.5-7.4-1.4-11
		c-1.3-5.2-4-9.7-7.9-13.3c-1.1-1.1-2.5-2.4-0.8-3.7c0.6-0.5,2.7,0.2,3.5,1C236.5,188.5,239.7,197.1,240.2,206.5z"/>
</g>
<g>
	<path d="M467.5,217.6c1.7-4.4,3.6-9.1,5.4-13.9c-7.1-4.8-13.1-10.5-17.6-17.7c-0.7-1.1-0.7-2.6-1.5-3.6c-0.8-1-1.9-2-3.1-2.4
		c-0.5-0.2-1.9,1-2.2,1.8c-4.7,11.9-9.3,23.7-13.8,35.7c-0.3,0.8-0.1,2.5,0.4,2.8c1,0.6,2.5,0.9,3.7,0.6c4.1-1,8.1-2.8,12.2-3.3
		C456.3,217.1,461.7,217.6,467.5,217.6z"/>
	<path d="M476,222.7c7,1.6,11.7-0.8,12.6-6.6c0.6-4-1.6-7.9-5.3-9.4c-0.7-0.3-1.3-0.5-2-0.8c-5.1-2.2-6-2.2-7.6,2.8
		c-2.8,8.8-7.7,16.4-12.2,24.2c-1.8,3.1-1.7,3.6,1.7,5c6.5,2.5,5.7,2.5,8-3.5c1.4-3.7,2.9-7.5,4.4-11.2
		C475.6,223,475.7,223,476,222.7z"/>
	<path d="M421,208.2c0.5-11.8,4.4-22.1,12.9-30.5c0.4-0.4,1.2-0.8,1.2-1.3c0.1-0.9,0.2-2-0.3-2.7c-0.3-0.4-1.8-0.4-2.4,0
		c-1.4,1-2.7,2.3-3.8,3.6c-8.1,9.9-12.3,21.1-11.6,33.9c0.1,1.5,0,3.6,2.3,3.1c0.8-0.1,1.3-2.1,1.6-3.3
		C421.2,210.1,421,209.1,421,208.2z"/>
	<path d="M425.3,207.2c0.1,1.1-0.1,1.9,0.2,2.5c0.5,1.1,1.3,2,2,3c0.7-1.1,1.7-2.1,1.9-3.3c0.6-3.7,0.5-7.6,1.4-11.2
		c1.3-5.3,4.1-9.9,8.1-13.6c1.2-1.1,2.6-2.4,0.9-3.8c-0.6-0.5-2.7,0.2-3.5,1C429.1,188.8,425.9,197.6,425.3,207.2z"/>
</g>
</svg>
